<svg height="496pt" viewBox="-56 0 496 496.03312" width="496pt" xmlns="http://www.w3.org/2000/svg"><path d="m184.015625 136.03125h-160c-13.253906 0-24 10.746094-24 24v312c0 13.257812 10.746094 24 24 24h160c13.253906 0 24-10.742188 24-24v-312c0-13.253906-10.746094-24-24-24zm-168 64h176v200h-176zm8-48h160c4.417969 0 8 3.582031 8 8v24h-176v-24c0-4.417969 3.582031-8 8-8zm160 328h-160c-4.417969 0-8-3.578125-8-8v-56h176v56c0 4.421875-3.582031 8-8 8zm0 0"/><path d="m80.015625 176.03125h48c4.417969 0 8-3.578125 8-8 0-4.417969-3.582031-8-8-8h-48c-4.417969 0-8 3.582031-8 8 0 4.421875 3.582031 8 8 8zm0 0"/><path d="m104.015625 424.03125c-13.253906 0-24 10.746094-24 24 0 13.257812 10.746094 24 24 24s24-10.742188 24-24c0-13.253906-10.746094-24-24-24zm0 32c-4.417969 0-8-3.578125-8-8 0-4.417969 3.582031-8 8-8s8 3.582031 8 8c0 4.421875-3.582031 8-8 8zm0 0"/><path d="m334.417969 28.394531c-12.15625-18.066406-32.632813-28.742187-54.402344-28.363281-26.25-.859375-50.183594 14.960938-59.679687 39.449219-23.917969 1.152343-43.078126 20.238281-44.320313 44.152343 1.296875 23.859376 20.390625 42.894532 44.257813 44.113282.699218.1875 1.417968.285156 2.144531.285156h108.796875c.675781.003906 1.351562-.085938 2-.261719 28.617187-2.359375 50.800781-23.945312 50.800781-49.738281 0-25.789062-21.453125-46.796875-49.597656-49.636719zm-3.632813 83.511719c-.34375.019531-.6875.0625-1.023437.125h-105.847657c-.320312-.058594-.644531-.097656-.96875-.117188-16.09375.042969-29.535156-12.25-30.929687-28.28125 0-15.65625 15.066406-28.398437 33.601563-28.398437.265624-.019531.53125-.019531.800781 0 3.886719.191406 7.304687-2.558594 7.949219-6.402344 3.832031-18.992187 23.042968-32.800781 45.648437-32.800781 17.449219-.519531 33.769531 8.601562 42.464844 23.738281 1.335937 2.585938 3.96875 4.246094 6.878906 4.328125 21.679687.617188 38.65625 15.519532 38.65625 33.933594 0 17.785156-16.367187 32.664062-37.261719 33.875zm0 0"/><path d="m159.289062 308.6875c-1.308593-2.835938-4.148437-4.65625-7.273437-4.65625h-16v-72c0-4.417969-3.582031-8-8-8h-48c-4.417969 0-8 3.582031-8 8v72h-16c-3.125.003906-5.960937 1.820312-7.265625 4.660156s-.839844 6.179688 1.195312 8.550782l48 56c1.519532 1.769531 3.738282 2.789062 6.070313 2.789062 2.335937 0 4.554687-1.019531 6.074219-2.789062l48-56c2.035156-2.371094 2.503906-5.710938 1.199218-8.554688zm-55.273437 47.050781-30.605469-35.707031h6.605469c4.417969 0 8-3.578125 8-8v-72h32v72c0 4.421875 3.582031 8 8 8h6.609375zm0 0"/></svg>