<svg width="39" height="43" viewBox="0 0 39 43" fill="none" xmlns="http://www.w3.org/2000/svg">
<g clip-path="url(#clip0)">
<path d="M38.9921 13.3803C38.9881 13.3401 38.9792 13.3003 38.9655 13.2618C38.9566 13.2275 38.9441 13.1939 38.9284 13.1615C38.9102 13.1298 38.8885 13.0999 38.8635 13.0722C38.8384 13.0393 38.8094 13.009 38.777 12.9818C38.7666 12.9736 38.7621 12.9625 38.751 12.9543L32.4997 8.59717V4.08132C32.4997 3.11479 31.6265 2.33121 30.5496 2.33121H23.5052L20.6846 0.365812C19.9878 -0.121897 19.0107 -0.121897 18.3139 0.365812L15.4928 2.33121H8.44834C7.37137 2.33121 6.49824 3.11472 6.49824 4.08132V8.59724L0.248866 12.9544C0.237821 12.9626 0.23325 12.9737 0.22289 12.9818C0.190515 13.009 0.161492 13.0394 0.136431 13.0723C0.111445 13.1 0.0896588 13.1298 0.0714528 13.1616C0.0556844 13.1939 0.043344 13.2275 0.0344314 13.2619C0.0208721 13.2999 0.0119596 13.339 0.00776992 13.3786C0.00776992 13.3908 0 13.4014 0 13.4136V33.2499C0.000914108 33.621 0.134679 33.9819 0.381564 34.2795C0.385449 34.2848 0.386135 34.2912 0.390629 34.2959C0.3952 34.3005 0.40495 34.3058 0.411425 34.3122C0.776611 34.7434 1.34458 34.9977 1.94812 35H37.0499C37.6558 34.9984 38.2261 34.7429 38.5917 34.3093C38.5969 34.3035 38.6048 34.3017 38.6093 34.2959C38.6138 34.2901 38.6144 34.2848 38.6184 34.2796C38.8653 33.9819 38.9991 33.621 39 33.25V13.4153C38.9999 13.403 38.9928 13.3925 38.9921 13.3803ZM19.1089 1.28633C19.3359 1.12445 19.6574 1.12445 19.8844 1.28633L21.384 2.33114H17.6138L19.1089 1.28633ZM2.11189 33.8333L19.109 21.9844C19.3361 21.8228 19.6574 21.8228 19.8844 21.9844L36.886 33.8333H2.11189ZM37.6999 32.9238L20.6846 21.0638C19.9877 20.5765 19.0109 20.5765 18.3139 21.0638L1.29803 32.9238V14.3037L11.9501 21.7271C12.234 21.9246 12.6424 21.8783 12.8625 21.6236C13.0826 21.3688 13.0309 21.0023 12.7471 20.8048L1.92534 13.2636L6.49832 10.0742V14.582C6.49832 14.9042 6.78939 15.1653 7.14833 15.1653C7.50734 15.1653 7.79833 14.9041 7.79833 14.582V4.08125C7.79833 3.75905 8.08932 3.4979 8.44834 3.4979H30.5494C30.9084 3.4979 31.1994 3.75905 31.1994 4.08125V14.582C31.1994 14.9042 31.4904 15.1653 31.8494 15.1653C32.2085 15.1653 32.4994 14.9041 32.4994 14.582V10.0742L37.0724 13.2636L26.2319 20.8182C26.0454 20.9451 25.9492 21.1521 25.9801 21.3602C26.011 21.5684 26.1642 21.7456 26.3812 21.8242C26.5983 21.9027 26.8456 21.8706 27.0288 21.7399L37.6997 14.3037V32.9238H37.6999Z" fill="#7DD0CF"/>
<path d="M27.2994 13.9989V11.6654C27.2994 7.79916 23.807 4.66495 19.499 4.66495C15.191 4.66495 11.6986 7.79916 11.6986 11.6654C11.6986 15.5317 15.191 18.6659 19.499 18.6659C19.858 18.6659 20.149 18.4047 20.149 18.0825C20.149 17.7603 19.858 17.4992 19.499 17.4992C15.909 17.4992 12.9987 14.8873 12.9987 11.6655C12.9987 8.44363 15.909 5.83178 19.499 5.83178C23.089 5.83178 25.9993 8.44363 25.9993 11.6655V13.9989C25.9993 14.6433 25.4172 15.1657 24.6992 15.1657C23.9812 15.1657 23.3991 14.6433 23.3991 13.9989V11.6655C23.3991 11.3433 23.1081 11.0821 22.7491 11.0821C22.3901 11.0821 22.0991 11.3433 22.0991 11.6655C22.0991 12.9542 20.935 13.9989 19.499 13.9989C18.063 13.9989 16.8989 12.9542 16.8989 11.6655C16.8989 10.3768 18.063 9.33202 19.499 9.33202C19.858 9.33202 20.149 9.07086 20.149 8.74867C20.149 8.42647 19.858 8.16532 19.499 8.16532C17.7534 8.16183 16.2178 9.19966 15.7394 10.7063C15.261 12.2129 15.9563 13.8213 17.4417 14.6441C18.9271 15.4669 20.8408 15.3038 22.1271 14.2446C22.2686 15.4783 23.4634 16.3956 24.8434 16.3301C26.2235 16.2645 27.3037 15.2391 27.2994 13.9989Z" fill="#7DD0CF"/>
</g>
<defs>
<clipPath id="clip0">
<rect width="39" height="43" fill="white"/>
</clipPath>
</defs>
</svg>
